<svg xmlns="http://www.w3.org/2000/svg" viewBox="0 0 352 444" role="img" aria-label="Bundesadler">
  <g fill="#000000">
    <!-- Head and neck -->
    <path d="M178 34
             C166 24 150 20 136 26
             C124 32 116 42 112 54
             L110 66
             C120 70 130 76 140 78
             C152 80 164 76 172 66
             C178 56 180 44 178 34Z"/>

    <!-- Body -->
    <path d="M152 78
             L200 78
             C204 84 206 94 204 106
             L200 148
             C196 194 194 234 192 266
             L190 286
             C186 298 180 304 176 306
             C172 304 166 298 162 286
             L160 266
             C158 234 156 194 152 148
             L148 106
             C146 94 148 84 152 78Z"/>

    <!-- Left wing scroll -->
    <path d="M150 78
             C110 72 66 78 36 100
             C18 112 10 130 14 146
             C18 160 32 166 46 160
             C62 150 74 134 82 116
             C94 96 114 84 134 80
             C142 78 148 78 150 78Z"/>

    <!-- Right wing scroll -->
    <path d="M202 78
             C242 72 286 78 316 100
             C334 112 342 130 338 146
             C334 160 320 166 306 160
             C290 150 278 134 270 116
             C258 96 238 84 218 80
             C210 78 204 78 202 78Z"/>

    <!-- Left wing remiges -->
    <rect x="28" y="106" width="12" height="154"/>
    <rect x="45" y="100" width="12" height="160"/>
    <rect x="62" y="96" width="12" height="164"/>
    <rect x="79" y="92" width="12" height="168"/>
    <rect x="96" y="90" width="12" height="170"/>
    <rect x="113" y="88" width="12" height="172"/>
    <rect x="130" y="86" width="10" height="174"/>

    <!-- Right wing remiges -->
    <rect x="312" y="106" width="12" height="154"/>
    <rect x="295" y="100" width="12" height="160"/>
    <rect x="278" y="96" width="12" height="164"/>
    <rect x="261" y="92" width="12" height="168"/>
    <rect x="244" y="90" width="12" height="170"/>
    <rect x="227" y="88" width="12" height="172"/>
    <rect x="212" y="86" width="10" height="174"/>

    <!-- Tail -->
    <path d="M176 274
             C146 278 116 296 94 320
             C80 336 74 352 78 364
             C82 374 96 378 110 372
             C128 364 146 348 160 332
             L176 318
             L192 332
             C206 348 224 364 242 372
             C256 378 270 374 274 364
             C278 352 272 336 258 320
             C236 296 206 278 176 274Z"/>
  </g>

  <g fill="#DD0000">
    <!-- Beak -->
    <path d="M112 54
             L90 54
             C76 50 62 54 52 64
             C44 72 42 82 48 88
             L60 90
             C64 96 72 98 80 94
             L98 86
             C106 80 110 70 112 62
             Z"/>

    <!-- Tongue -->
    <path d="M74 80 C70 84 68 90 72 94 L80 92 C82 88 80 82 76 80 Z"/>

    <!-- Left talons -->
    <path d="M158 292 L142 314 L128 330 L116 342 L108 348 L102 342 L114 328 L128 310 L142 294 Z"/>
    <path d="M134 318 L122 334 L110 346 L104 352 L98 346 L110 332 L124 316 Z"/>
    <path d="M144 324 L132 340 L120 352 L114 358 L108 352 L120 338 L134 322 Z"/>
    <path d="M150 330 L138 346 L126 358 L120 364 L114 358 L126 344 L140 328 Z"/>

    <!-- Right talons -->
    <path d="M194 292 L210 314 L224 330 L236 342 L244 348 L250 342 L238 328 L224 310 L210 294 Z"/>
    <path d="M218 318 L230 334 L242 346 L248 352 L254 346 L242 332 L228 316 Z"/>
    <path d="M208 324 L220 340 L232 352 L238 358 L244 352 L232 338 L218 322 Z"/>
    <path d="M202 330 L214 346 L226 358 L232 364 L238 358 L226 344 L212 328 Z"/>
  </g>
</svg>
